<svg width="76" height="82" viewBox="0 0 76 82" fill="none" xmlns="http://www.w3.org/2000/svg">
<path fill-rule="evenodd" clip-rule="evenodd" d="M30.074 72.9572V80H37.8109L34.8078 56.5501H34.4188H20.6537C20.3175 56.5501 20.1027 56.9114 20.2546 57.2118C20.3162 57.3333 20.3777 57.457 20.4392 57.583C21.6778 60.1229 22.8823 63.5843 24.3266 68.2557H26.2346H26.3161C26.3415 68.2654 26.3667 68.2751 26.3918 68.2849L26.3929 68.2853C26.6544 68.3871 26.8965 68.4908 27.1213 68.5987C28.8363 69.4219 29.5382 70.4919 30.0635 72.8614L30.0637 72.8625C30.0672 72.8779 30.0706 72.8935 30.074 72.9091V72.9572ZM20.4392 57.583C20.3777 57.457 20.3162 57.3333 20.2546 57.2118L20.2549 57.2124C20.3164 57.3337 20.3778 57.4573 20.4392 57.583Z" fill="#FCBB65"/>
<path d="M9.75632 47.2045C10.3517 48.8221 11.8808 50.1342 14.6001 51.6364C16.7897 52.3388 18.4003 53.8103 19.9055 56.5501H20.6537H34.4188H34.8078L33.7227 48.0775C33.6588 47.5784 33.234 47.2045 32.7308 47.2045H9.75632Z" fill="#FCBB65"/>
<path d="M30.074 72.9572V80H37.8109L34.8078 56.5501H34.4188H20.6537C20.3175 56.5501 20.1027 56.9114 20.2546 57.2118L20.2549 57.2124C20.3164 57.3337 20.3778 57.4573 20.4392 57.583C21.6778 60.1229 22.8823 63.5843 24.3266 68.2557H26.2346H26.3161C26.3415 68.2654 26.3667 68.2751 26.3918 68.2849C26.3419 68.2656 26.288 68.2557 26.2346 68.2557H24.3266H7.74743H6.05992C6.00641 68.2557 5.95251 68.2657 5.90256 68.2849C3.69214 69.1356 2.72886 70.0179 2.11886 72.4052C2.08139 72.5518 2.04527 72.7041 2.01026 72.8624C2.0035 72.8932 2 72.9254 2 72.957V79.5568C2 79.8016 2.19794 80 2.44211 80H8.63165H15.7054H22.3371H30.074V72.9572C30.074 72.9256 30.0705 72.8934 30.0637 72.8625L30.074 72.9091V72.9572Z" fill="#FCBB65"/>
<path d="M26.9496 30.5852H15.5709L11.4477 39.2273H28.0457C27.4001 36.9641 27.0511 34.1415 26.9496 30.5852Z" fill="#FCBB65"/>
<path d="M26.9792 24.6023L20.9627 19.2841L15.5709 30.5852H26.9496C26.8983 28.7862 26.9103 26.7994 26.9792 24.6023Z" fill="#FCBB65"/>
<path d="M48.8637 24.6023C39.9066 21.0585 35.1254 21.1492 26.9792 24.6023C26.9103 26.7994 26.8983 28.7862 26.9496 30.5852C27.0511 34.1415 27.4001 36.9641 28.0457 39.2273C29.5003 44.327 32.4607 46.5866 37.4882 48.002C37.6966 48.0606 37.9213 48.0473 38.1216 47.9651C43.5342 45.7434 46.384 43.015 47.7954 39.2273C48.692 36.8213 49.0082 33.9878 49.0323 30.5852C49.0452 28.7616 48.9742 26.7746 48.8637 24.6023Z" fill="#FCBB65"/>
<path d="M33.6109 10.1989C29.0253 10.6812 26.568 12.0878 22.4541 16.2837C22.3774 16.362 22.313 16.4539 22.2658 16.5527L20.9627 19.2841L26.9792 24.6023C35.1254 21.1492 39.9066 21.0585 48.8637 24.6023L54.8833 19.2841L53.5569 16.5101C53.523 16.4392 53.48 16.3714 53.4303 16.3105C50.0781 12.2003 47.6664 10.7512 42.2284 10.1989L41.2972 14.5067C41.1978 14.967 40.7907 15.2955 40.3198 15.2955H35.7103C35.255 15.2955 34.8572 14.9879 34.7425 14.5473L33.6109 10.1989Z" fill="#FCBB65"/>
<path d="M54.8833 19.2841L48.8637 24.6023C48.9742 26.7746 49.0452 28.7616 49.0323 30.5852H60.2873L54.8833 19.2841Z" fill="#FCBB65"/>
<path d="M60.2873 30.5852H49.0323C49.0082 33.9878 48.692 36.8213 47.7954 39.2273H64.4198L60.2873 30.5852Z" fill="#FCBB65"/>
<path d="M45.926 72.9572V80H53.6629H60.2946H67.3683H73.5579C73.8021 80 74 79.8016 74 79.5568V72.957C74 72.9251 73.9964 72.8927 73.9896 72.8616C73.3846 70.1262 72.4434 69.1878 70.0974 68.2849C70.0475 68.2657 69.9936 68.2557 69.9401 68.2557H68.2526H51.6734H49.7654C49.7115 68.2557 49.6573 68.2658 49.6071 68.2853C47.3508 69.1637 46.5307 70.1813 45.9365 72.8614C45.9296 72.8926 45.926 72.9252 45.926 72.9572Z" fill="#FCBB65"/>
<path d="M14.6001 51.6364C8.86294 56.133 7.64988 59.9589 7.74743 68.2557H24.3266C22.8823 63.5843 21.6778 60.1229 20.4392 57.583C20.3778 57.4573 20.3164 57.3337 20.2549 57.2124L20.2546 57.2118C20.1387 56.9834 20.0224 56.7629 19.9055 56.5501C18.4003 53.8103 16.7897 52.3388 14.6001 51.6364Z" fill="#FFD066"/>
<path d="M33.6109 10.1989L34.7425 14.5473C34.8572 14.9879 35.255 15.2955 35.7103 15.2955H40.3198C40.7907 15.2955 41.1978 14.967 41.2972 14.5067L42.2284 10.1989L43.7387 3.21126C43.8733 2.58828 43.3986 2 42.7612 2H33.4593C32.8433 2 32.3738 2.55159 32.4722 3.15969L33.6109 10.1989Z" fill="#FFD066"/>
<path d="M11.4477 39.2273L10.179 41.8864C9.43151 44.1208 9.2323 45.7809 9.75632 47.2045H32.7308C33.234 47.2045 33.6588 47.5784 33.7227 48.0775L34.8078 56.5501L37.8109 80L41.5812 56.5501L42.7742 48.0653C42.8436 47.5717 43.2659 47.2045 43.7644 47.2045H66.311C66.7089 46.1085 66.6917 44.8798 66.3515 43.3256C66.3355 43.2528 66.3108 43.182 66.2787 43.1147L64.4198 39.2273H47.7954C46.384 43.015 43.5342 45.7434 38.1216 47.9651C37.9213 48.0473 37.6966 48.0606 37.4882 48.002C32.4607 46.5866 29.5003 44.327 28.0457 39.2273H11.4477Z" fill="#FCBB65"/>
<path d="M43.7644 47.2045C43.2659 47.2045 42.8436 47.5717 42.7742 48.0653L41.5812 56.5501L55.7976 56.5501C57.2973 53.8547 59.0533 52.3926 61.5857 51.783C64.2491 50.1359 65.727 48.813 66.311 47.2045H43.7644Z" fill="#FCBB65"/>
<path d="M45.926 80V72.9572C45.926 72.9252 45.9296 72.8926 45.9365 72.8614C46.5307 70.1813 47.3508 69.1637 49.6071 68.2853C49.6573 68.2658 49.7115 68.2557 49.7654 68.2557H51.6734C53.1243 62.9554 54.3399 59.1701 55.7976 56.5501L41.5812 56.5501L37.8109 80H45.926Z" fill="#FCBB65"/>
<path d="M68.2526 68.2557C68.3491 60.0493 67.1633 56.2168 61.5857 51.783C59.0533 52.3926 57.2973 53.8547 55.7976 56.5501C54.3399 59.1701 53.1243 62.9554 51.6734 68.2557H68.2526Z" fill="#FFD066"/>
<path d="M30.074 80V72.9091M30.074 80H22.3371M30.074 80V72.9572M30.074 80H37.8109M30.074 72.9091V72.9572M30.074 72.9091L30.0637 72.8625M30.074 72.9091C30.0706 72.8935 30.0672 72.8779 30.0637 72.8625M26.3161 68.2557H24.3266M26.3161 68.2557H26.2346M26.3161 68.2557C26.3415 68.2654 26.3667 68.2751 26.3918 68.2849M8.63165 80H3C2.44772 80 2 79.5523 2 79V72.9569C2 72.9251 2.0034 72.8934 2.01026 72.8624V72.8624M8.63165 80V74.4602M8.63165 80H15.7054M8.63165 80H2.44211C2.19794 80 2 79.8016 2 79.5568V72.957C2 72.9254 2.0035 72.8932 2.01026 72.8624M15.7054 80V74.4602M15.7054 80H22.3371M22.3371 74.4602V80M7.74743 68.2557H6.16245C6.04116 68.2557 5.92028 68.2776 5.80735 68.3219C3.66431 69.1615 2.72004 70.0524 2.11886 72.4052M7.74743 68.2557C7.64988 59.9589 8.86294 56.133 14.6001 51.6364M7.74743 68.2557H24.3266M7.74743 68.2557H6.05992C6.00641 68.2557 5.95251 68.2657 5.90256 68.2849C3.69214 69.1356 2.72886 70.0179 2.11886 72.4052M14.6001 51.6364C11.8808 50.1342 10.3517 48.8221 9.75632 47.2045M14.6001 51.6364C16.7897 52.3388 18.4003 53.8103 19.9055 56.5501M24.3266 68.2557H26.2346M24.3266 68.2557C22.8823 63.5843 21.6778 60.1229 20.4392 57.583M33.6109 10.1989C29.0253 10.6812 26.568 12.0878 22.4541 16.2837C22.3774 16.362 22.313 16.4539 22.2658 16.5527L20.9627 19.2841M33.6109 10.1989L34.7425 14.5473C34.8572 14.9879 35.255 15.2955 35.7103 15.2955H40.3198C40.7907 15.2955 41.1978 14.967 41.2972 14.5067L42.2284 10.1989M33.6109 10.1989L32.4722 3.15969C32.3738 2.55159 32.8433 2 33.4593 2H42.7612C43.3986 2 43.8733 2.58828 43.7387 3.21126L42.2284 10.1989M20.9627 19.2841L26.9792 24.6023M20.9627 19.2841L15.5709 30.5852M26.9792 24.6023C35.1254 21.1492 39.9066 21.0585 48.8637 24.6023M26.9792 24.6023C26.9103 26.7994 26.8983 28.7862 26.9496 30.5852M48.8637 24.6023L54.8833 19.2841M48.8637 24.6023C48.9742 26.7746 49.0452 28.7616 49.0323 30.5852M15.5709 30.5852H26.9496M15.5709 30.5852L11.4477 39.2273M26.9496 30.5852C27.0511 34.1415 27.4001 36.9641 28.0457 39.2273M11.4477 39.2273L10.179 41.8864C9.43151 44.1208 9.2323 45.7809 9.75632 47.2045M11.4477 39.2273H28.0457M28.0457 39.2273C29.5003 44.327 32.4607 46.5866 37.4882 48.002C37.6966 48.0606 37.9213 48.0473 38.1216 47.9651C43.5342 45.7434 46.384 43.015 47.7954 39.2273M9.75632 47.2045H32.7308C33.234 47.2045 33.6588 47.5784 33.7227 48.0775L34.8078 56.5501M19.9055 56.5501H34.8078M19.9055 56.5501C20.0224 56.7629 20.1387 56.9834 20.2546 57.2118M19.9055 56.5501H20.6537M34.8078 56.5501L37.8109 80M34.8078 56.5501H34.4188H20.6537M32.5056 31.25H34.2741M36.9267 37.233H39.1373M41.7899 31.25H43.5584M30.074 72.9572C30.074 72.9256 30.0705 72.8934 30.0637 72.8625M26.2346 68.2557C26.288 68.2557 26.3419 68.2656 26.3918 68.2849M20.6537 56.5501C20.3175 56.5501 20.1027 56.9114 20.2546 57.2118M45.926 80V72.9572C45.926 72.9252 45.9296 72.8926 45.9365 72.8614C46.5307 70.1813 47.3508 69.1637 49.6071 68.2853C49.6573 68.2658 49.7115 68.2557 49.7654 68.2557H51.6734M45.926 80H53.6629M45.926 80H37.8109M67.3683 80H73.5579C73.8021 80 74 79.8016 74 79.5568V72.957C74 72.9251 73.9964 72.8927 73.9896 72.8616C73.3846 70.1262 72.4434 69.1878 70.0974 68.2849C70.0475 68.2657 69.9936 68.2557 69.9401 68.2557H68.2526M67.3683 80V74.4602M67.3683 80H60.2946M60.2946 80V74.4602M60.2946 80H53.6629M53.6629 74.4602V80M68.2526 68.2557C68.3491 60.0493 67.1633 56.2168 61.5857 51.783M68.2526 68.2557H51.6734M51.6734 68.2557C53.1243 62.9554 54.3399 59.1701 55.7976 56.5501M41.5812 56.5501L37.8109 80M41.5812 56.5501L42.7742 48.0653C42.8436 47.5717 43.2659 47.2045 43.7644 47.2045H66.311M41.5812 56.5501L55.7976 56.5501M61.5857 51.783C64.2491 50.1359 65.727 48.813 66.311 47.2045M61.5857 51.783C59.0533 52.3926 57.2973 53.8547 55.7976 56.5501M42.2284 10.1989C47.6664 10.7512 50.0781 12.2003 53.4303 16.3105C53.48 16.3714 53.523 16.4392 53.5569 16.5101L54.8833 19.2841M54.8833 19.2841L60.2873 30.5852M49.0323 30.5852H60.2873M49.0323 30.5852C49.0082 33.9878 48.692 36.8213 47.7954 39.2273M60.2873 30.5852L64.4198 39.2273M47.7954 39.2273H64.4198M64.4198 39.2273L66.2787 43.1147C66.3108 43.182 66.3355 43.2528 66.3515 43.3256C66.6917 44.8798 66.7089 46.1085 66.311 47.2045M20.2546 57.2118C20.3162 57.3333 20.3777 57.457 20.4392 57.583M20.2546 57.2118L20.2549 57.2124C20.3164 57.3337 20.3778 57.4573 20.4392 57.583M26.3918 68.2849L26.3929 68.2853C26.6544 68.3871 26.8965 68.4908 27.1213 68.5987M26.3918 68.2849C26.6537 68.3868 26.8962 68.4906 27.1213 68.5987M27.1213 68.5987C28.8363 69.4219 29.5382 70.4919 30.0635 72.8614L30.0637 72.8625M27.1213 68.5987C28.8365 69.422 29.5384 70.4921 30.0637 72.8625M2.11886 72.4052C2.08139 72.5518 2.04527 72.7041 2.01026 72.8624M2.11886 72.4052C2.08146 72.5515 2.04538 72.7036 2.01043 72.8616L2.01026 72.8624" stroke="black" stroke-width="3" stroke-linecap="round" stroke-linejoin="round"/>
</svg>
