<svg width="81" height="81" viewBox="0 0 81 81" fill="none" xmlns="http://www.w3.org/2000/svg">
<path d="M14 73.5V66.5C11.8978 59.051 9.38856 56.1934 2.50004 53.5C1.65899 63.0745 3.25032 67.7601 14 73.5Z" fill="#FFD066"/>
<path d="M14 73.5C22.5998 70.1873 25.5022 66.3242 25 53.5C17.7094 56.708 15.1403 59.1761 14 66.5V73.5Z" fill="#FFD066"/>
<path d="M14 56.5C23.7105 50.7006 25.7991 46.5657 25 38C16.8058 41.7694 14.7079 44.9698 14 52V56.5Z" fill="#FFD066"/>
<path d="M14 56.5V52C13.0958 45.4257 11.0076 42.2279 2.50004 38C2.4309 48.6676 4.99888 52.6813 14 56.5Z" fill="#FFD066"/>
<path d="M14 41V36C13.4758 28.9394 11.1799 26.1329 3.83472 23C3.90491 32.8988 6.46668 37.3249 14 41Z" fill="#FFD066"/>
<path d="M14 41C22.0473 36.3729 23.9288 32.1524 24.0713 23C16.7103 27.1758 14.1451 29.9277 14 36V41Z" fill="#FFD066"/>
<path d="M25 53.5L26.4989 53.4413L26.4127 51.2396L24.3959 52.127L25 53.5ZM25 38L26.4936 37.8607L26.2969 35.7524L24.3732 36.6373L25 38ZM25.4992 17.4512C25.4723 16.6232 24.7792 15.9738 23.9512 16.0008C23.1232 16.0278 22.4739 16.7208 22.5008 17.5488L25.4992 17.4512ZM24.0713 23L25.5712 23.0234L24.0713 23ZM12.5 79C12.5 79.8284 13.1716 80.5 14 80.5C14.8285 80.5 15.5 79.8284 15.5 79H12.5ZM15.5 17.5C15.5 16.6716 14.8285 16 14 16C13.1716 16 12.5 16.6716 12.5 17.5H15.5ZM2.50004 53.5L3.04626 52.103L1.18104 51.3737L1.00579 53.3687L2.50004 53.5ZM2.50004 38L3.16758 36.6567L1.01564 35.5873L1.00007 37.9903L2.50004 38ZM5.49744 17.5882C5.54616 16.7612 4.91525 16.0513 4.08826 16.0026C3.26127 15.9539 2.55136 16.5848 2.50263 17.4118L5.49744 17.5882ZM14.5392 74.8997C18.9414 73.204 22.2114 71.2513 24.2093 67.8219C26.1732 64.4511 26.7523 59.9119 26.4989 53.4413L23.5012 53.5587C23.75 59.9124 23.1289 63.7168 21.6172 66.3117C20.1395 68.8481 17.6585 70.4833 13.4608 72.1003L14.5392 74.8997ZM24.3959 52.127C20.7197 53.7446 17.9925 55.2713 16.066 57.4674C14.105 59.7028 13.1095 62.4696 12.5179 66.2692L15.4822 66.7308C16.0309 63.2066 16.89 61.0773 18.3213 59.4457C19.7871 57.7748 21.9897 56.4634 25.6042 54.873L24.3959 52.127ZM14.7692 57.7878C19.6793 54.8553 22.9055 52.21 24.7396 49.0382C26.6023 45.8169 26.9052 42.2736 26.4936 37.8607L23.5065 38.1393C23.8939 42.292 23.552 45.099 22.1426 47.5365C20.7045 50.0234 18.0312 52.3453 13.2309 55.2122L14.7692 57.7878ZM24.3732 36.6373C20.2042 38.555 17.3611 40.4234 15.4993 42.8685C13.6165 45.3409 12.8728 48.2231 12.5076 51.8497L15.4925 52.1503C15.8352 48.7467 16.4943 46.5136 17.886 44.6859C19.2986 42.8309 21.6016 41.2144 25.6269 39.3627L24.3732 36.6373ZM14.7477 42.3004C18.8888 39.9193 21.6397 37.5331 23.321 34.4076C24.9893 31.3061 25.4989 27.667 25.5712 23.0234L22.5715 22.9766C22.5013 27.4853 21.9989 30.5327 20.679 32.9864C19.3721 35.4159 17.1586 37.4536 13.2523 39.6996L14.7477 42.3004ZM25.5712 23.0234C25.598 21.2972 25.5642 19.4441 25.4992 17.4512L22.5008 17.5488C22.565 19.5194 22.5973 21.3189 22.5715 22.9766L25.5712 23.0234ZM23.3312 21.6953C19.6347 23.7923 16.9318 25.6412 15.1596 27.8502C13.3234 30.1391 12.5786 32.6906 12.5005 35.9642L15.4996 36.0358C15.5665 33.2371 16.1768 31.3766 17.4997 29.7275C18.8867 27.9985 21.1469 26.3835 24.8115 24.3047L23.3312 21.6953ZM15.5 79V73.5H12.5V79H15.5ZM15.5 73.5V66.5H12.5V73.5H15.5ZM15.5 66.5V56.5H12.5V66.5H15.5ZM15.5 56.5V52H12.5V56.5H15.5ZM15.5 52V41H12.5V52H15.5ZM15.5 41V36H12.5V41H15.5ZM15.5 36V17.5H12.5V36H15.5ZM14.7066 72.1768C9.4192 69.3536 6.65439 66.9236 5.22868 64.2352C3.80532 61.5513 3.57916 58.357 3.99428 53.6313L1.00579 53.3687C0.579861 58.2176 0.72885 62.1533 2.57832 65.6408C4.42545 69.1238 7.83116 71.9065 13.2935 74.8232L14.7066 72.1768ZM1.95381 54.897C5.29851 56.2048 7.39603 57.4839 8.92074 59.2098C10.4524 60.9435 11.5289 63.2665 12.5564 66.9074L15.4436 66.0926C14.3689 62.2845 13.1397 59.4542 11.169 57.2235C9.19144 54.985 6.59009 53.4886 3.04626 52.103L1.95381 54.897ZM14.5859 55.1191C10.184 53.2517 7.63487 51.4466 6.12075 49.0235C4.59396 46.5801 3.96594 43.2655 4 38.0097L1.00007 37.9903C0.964992 43.4021 1.58639 47.4282 3.5766 50.6132C5.57947 53.8185 8.81487 55.9296 13.4142 57.8809L14.5859 55.1191ZM1.83249 39.3433C6.02436 41.4265 8.43352 43.1632 9.92434 45.05C11.3853 46.8991 12.0785 49.0378 12.514 52.2044L15.486 51.7956C15.0174 48.3879 14.2143 45.6405 12.2783 43.1902C10.372 40.7776 7.48327 38.8014 3.16758 36.6567L1.83249 39.3433ZM14.6577 39.6519C11.043 37.8884 8.81018 36.0374 7.42325 33.5935C6.0181 31.1175 5.36907 27.8387 5.33468 22.9894L2.33476 23.0106C2.37056 28.0601 3.03751 31.9437 4.81413 35.0742C6.60897 38.2369 9.42374 40.4364 13.3424 42.3481L14.6577 39.6519ZM5.33468 22.9894C5.32314 21.3611 5.3807 19.5697 5.49744 17.5882L2.50263 17.4118C2.38321 19.4388 2.32262 21.2988 2.33476 23.0106L5.33468 22.9894ZM3.24623 24.3797C6.85889 25.9206 8.97985 27.2846 10.2973 28.9558C11.5889 30.5941 12.252 32.7142 12.5042 36.1111L15.4959 35.8889C15.2239 32.2252 14.477 29.4118 12.6532 27.0985C10.8554 24.8179 8.15575 23.2123 4.42321 21.6203L3.24623 24.3797Z" fill="black"/>
<path d="M67.6919 73V66C65.5897 58.551 63.0805 55.6934 56.1919 53C55.3509 62.5745 56.9422 67.2601 67.6919 73Z" fill="#FFD066"/>
<path d="M67.6919 73C76.2917 69.6873 79.1941 65.8242 78.6919 53C71.4013 56.208 68.8322 58.6761 67.6919 66V73Z" fill="#FFD066"/>
<path d="M67.6919 56C77.4024 50.2006 79.491 46.0657 78.6919 37.5C70.4977 41.2694 68.3998 44.4698 67.6919 51.5V56Z" fill="#FFD066"/>
<path d="M67.6919 56V51.5C66.7877 44.9257 64.6995 41.7279 56.1919 37.5C56.1228 48.1676 58.6908 52.1813 67.6919 56Z" fill="#FFD066"/>
<path d="M67.6919 40.5V35.5C67.1677 28.4394 64.8718 25.6329 57.5266 22.5C57.5968 32.3988 60.1586 36.8249 67.6919 40.5Z" fill="#FFD066"/>
<path d="M67.6919 40.5C75.7392 35.8729 77.6207 31.6524 77.7632 22.5C70.4022 26.6758 67.837 29.4277 67.6919 35.5V40.5Z" fill="#FFD066"/>
<path d="M78.6919 53L80.1908 52.9413L80.1046 50.7396L78.0878 51.627L78.6919 53ZM78.6919 37.5L80.1854 37.3607L79.9888 35.2524L78.0651 36.1373L78.6919 37.5ZM79.1911 16.9512C79.1642 16.1232 78.4711 15.4738 77.6431 15.5008C76.8151 15.5278 76.1658 16.2208 76.1927 17.0488L79.1911 16.9512ZM77.7632 22.5L79.263 22.5234L77.7632 22.5ZM66.1919 78.5C66.1919 79.3284 66.8635 80 67.6919 80C68.5204 80 69.1919 79.3284 69.1919 78.5H66.1919ZM69.1919 17C69.1919 16.1716 68.5204 15.5 67.6919 15.5C66.8635 15.5 66.1919 16.1716 66.1919 17H69.1919ZM56.1919 53L56.7382 51.603L54.8729 50.8737L54.6977 52.8687L56.1919 53ZM56.1919 37.5L56.8595 36.1567L54.7075 35.0873L54.692 37.4903L56.1919 37.5ZM59.1893 17.0882C59.2381 16.2612 58.6071 15.5513 57.7802 15.5026C56.9532 15.4539 56.2433 16.0848 56.1945 16.9118L59.1893 17.0882ZM68.2311 74.3997C72.6333 72.704 75.9033 70.7513 77.9012 67.3219C79.8651 63.9511 80.4441 59.4119 80.1908 52.9413L77.1931 53.0587C77.4419 59.4124 76.8208 63.2168 75.3091 65.8117C73.8314 68.3481 71.3504 69.9833 67.1527 71.6003L68.2311 74.3997ZM78.0878 51.627C74.4116 53.2446 71.6844 54.7713 69.7579 56.9674C67.7969 59.2028 66.8014 61.9696 66.2098 65.7692L69.1741 66.2308C69.7228 62.7066 70.5819 60.5773 72.0132 58.9457C73.4789 57.2748 75.6816 55.9634 79.2961 54.373L78.0878 51.627ZM68.4611 57.2878C73.3712 54.3553 76.5974 51.71 78.4315 48.5382C80.2942 45.3169 80.5971 41.7736 80.1854 37.3607L77.1984 37.6393C77.5858 41.792 77.2439 44.599 75.8345 47.0365C74.3964 49.5234 71.7231 51.8453 66.9228 54.7122L68.4611 57.2878ZM78.0651 36.1373C73.8961 38.055 71.053 39.9234 69.1912 42.3685C67.3084 44.8409 66.5647 47.7231 66.1995 51.3497L69.1844 51.6503C69.5271 48.2467 70.1862 46.0136 71.5779 44.1859C72.9905 42.3309 75.2935 40.7144 79.3188 38.8627L78.0651 36.1373ZM68.4396 41.8004C72.5807 39.4193 75.3316 37.0331 77.0129 33.9076C78.6812 30.8061 79.1907 27.167 79.263 22.5234L76.2634 22.4766C76.1932 26.9853 75.6908 30.0327 74.3709 32.4864C73.064 34.9159 70.8505 36.9536 66.9442 39.1996L68.4396 41.8004ZM79.263 22.5234C79.2899 20.7972 79.2561 18.9441 79.1911 16.9512L76.1927 17.0488C76.2569 19.0194 76.2892 20.8189 76.2634 22.4766L79.263 22.5234ZM77.0231 21.1953C73.3266 23.2923 70.6237 25.1412 68.8515 27.3502C67.0153 29.6391 66.2705 32.1906 66.1924 35.4642L69.1915 35.5358C69.2583 32.7371 69.8687 30.8766 71.1916 29.2275C72.5786 27.4985 74.8388 25.8835 78.5034 23.8047L77.0231 21.1953ZM69.1919 78.5V73H66.1919V78.5H69.1919ZM69.1919 73V66H66.1919V73H69.1919ZM69.1919 66V56H66.1919V66H69.1919ZM69.1919 56V51.5H66.1919V56H69.1919ZM69.1919 51.5V40.5H66.1919V51.5H69.1919ZM69.1919 40.5V35.5H66.1919V40.5H69.1919ZM69.1919 35.5V17H66.1919V35.5H69.1919ZM68.3985 71.6768C63.1111 68.8536 60.3463 66.4236 58.9206 63.7352C57.4972 61.0513 57.2711 57.857 57.6862 53.1313L54.6977 52.8687C54.2718 57.7176 54.4207 61.6533 56.2702 65.1408C58.1173 68.6238 61.5231 71.4065 66.9854 74.3232L68.3985 71.6768ZM55.6457 54.397C58.9904 55.7048 61.0879 56.9839 62.6126 58.7098C64.1443 60.4435 65.2208 62.7665 66.2483 66.4074L69.1355 65.5926C68.0608 61.7845 66.8316 58.9542 64.8609 56.7235C62.8833 54.485 60.282 52.9886 56.7382 51.603L55.6457 54.397ZM68.2778 54.6191C63.8759 52.7517 61.3268 50.9466 59.8126 48.5235C58.2859 46.0801 57.6578 42.7655 57.6919 37.5097L54.692 37.4903C54.6569 42.9021 55.2783 46.9282 57.2685 50.1132C59.2714 53.3185 62.5068 55.4296 67.1061 57.3809L68.2778 54.6191ZM55.5244 38.8433C59.7163 40.9265 62.1254 42.6632 63.6162 44.55C65.0772 46.3991 65.7704 48.5378 66.2059 51.7044L69.1779 51.2956C68.7093 47.8879 67.9062 45.1405 65.9702 42.6902C64.0639 40.2776 61.1752 38.3014 56.8595 36.1567L55.5244 38.8433ZM68.3496 39.1519C64.7349 37.3884 62.5021 35.5374 61.1151 33.0935C59.71 30.6175 59.061 27.3387 59.0266 22.4894L56.0267 22.5106C56.0625 27.5601 56.7294 31.4437 58.506 34.5742C60.3009 37.7369 63.1156 39.9364 67.0343 41.8481L68.3496 39.1519ZM59.0266 22.4894C59.015 20.8611 59.0726 19.0697 59.1893 17.0882L56.1945 16.9118C56.0751 18.9388 56.0145 20.7988 56.0267 22.5106L59.0266 22.4894ZM56.9381 23.8797C60.5508 25.4206 62.6717 26.7846 63.9892 28.4558C65.2808 30.0941 65.9439 32.2142 66.196 35.6111L69.1878 35.3889C68.9158 31.7252 68.1689 28.9118 66.3451 26.5985C64.5473 24.3179 61.8476 22.7123 58.1151 21.1203L56.9381 23.8797Z" fill="black"/>
<path d="M40.6919 73V66C38.5897 58.551 36.0805 55.6934 29.1919 53C28.3509 62.5745 29.9422 67.2601 40.6919 73Z" fill="#FFD066"/>
<path d="M40.6919 73C49.2917 69.6873 52.1941 65.8242 51.6919 53C44.4013 56.208 41.8322 58.6761 40.6919 66V73Z" fill="#FFD066"/>
<path d="M40.6919 56V51.5C39.7877 44.9257 37.6995 41.7279 29.1919 37.5C29.1228 48.1676 31.6908 52.1813 40.6919 56Z" fill="#FFD066"/>
<path d="M40.6919 56C50.4024 50.2006 52.491 46.0657 51.6919 37.5C43.4977 41.2694 41.3998 44.4698 40.6919 51.5V56Z" fill="#FFD066"/>
<path d="M40.6919 40.5V35.5C40.1677 28.4394 37.8452 26.6329 30.5 23.5C30.5702 33.3988 33.1586 36.8249 40.6919 40.5Z" fill="#FFD066"/>
<path d="M40.6919 40.5C48.7392 35.8729 50.3575 32.6524 50.5 23.5C43.139 27.6758 40.837 29.4277 40.6919 35.5V40.5Z" fill="#FFD066"/>
<path d="M30.7638 7.90718C30.6759 18.0161 32.8127 22.5513 40.6919 24.5L40.6919 19.5C39.1556 13.5144 36.8524 11.0569 30.7638 7.90718Z" fill="#FFD066"/>
<path d="M40.6919 19.5L40.6919 24.5C48.0185 21.926 50.2846 17.6382 50.2397 7.90718C43.1305 11.6412 41.3651 14.2558 40.6919 19.5Z" fill="#FFD066"/>
<path d="M51.6919 53L53.1908 52.9413L53.1046 50.7396L51.0878 51.627L51.6919 53ZM51.6919 37.5L53.1854 37.3607L52.9888 35.2524L51.0651 36.1373L51.6919 37.5ZM50.5 23.5L51.9998 23.5234L52.0406 20.9015L49.7599 22.1953L50.5 23.5ZM39.1919 78.5C39.1919 79.3284 39.8635 80 40.6919 80C41.5204 80 42.1919 79.3284 42.1919 78.5H39.1919ZM42.1919 8.5C42.1919 7.67157 41.5204 7 40.6919 7C39.8635 7 39.1919 7.67157 39.1919 8.5L42.1919 8.5ZM29.1919 53L29.7382 51.603L27.8729 50.8737L27.6977 52.8687L29.1919 53ZM29.1919 37.5L29.8595 36.1567L27.7075 35.0873L27.692 37.4903L29.1919 37.5ZM30.5 23.5L31.0885 22.1203L28.9838 21.2226L29 23.5106L30.5 23.5ZM51.4966 1.89916C51.4409 1.07261 50.7257 0.447703 49.8992 0.503393C49.0726 0.559083 48.4477 1.27428 48.5034 2.10084L51.4966 1.89916ZM32.497 2.09409C32.549 1.26729 31.9209 0.554917 31.0941 0.502954C30.2673 0.450991 29.5549 1.07912 29.503 1.90591L32.497 2.09409ZM30.7638 7.90718L29.2638 7.89413L30.7638 7.90718ZM41.2311 74.3997C45.6333 72.704 48.9033 70.7513 50.9012 67.3219C52.8651 63.9511 53.4442 59.4119 53.1908 52.9413L50.1931 53.0587C50.4419 59.4124 49.8208 63.2168 48.3091 65.8117C46.8314 68.3481 44.3504 69.9833 40.1527 71.6003L41.2311 74.3997ZM51.0878 51.627C47.4116 53.2446 44.6844 54.7713 42.7579 56.9674C40.7969 59.2028 39.8014 61.9696 39.2098 65.7692L42.1741 66.2308C42.7228 62.7066 43.5819 60.5773 45.0132 58.9457C46.479 57.2748 48.6816 55.9634 52.2961 54.373L51.0878 51.627ZM41.4611 57.2878C46.3712 54.3553 49.5974 51.71 51.4315 48.5382C53.2942 45.3169 53.5971 41.7736 53.1854 37.3607L50.1984 37.6393C50.5858 41.792 50.2439 44.599 48.8345 47.0365C47.3964 49.5234 44.7231 51.8453 39.9228 54.7122L41.4611 57.2878ZM51.0651 36.1373C46.8961 38.055 44.053 39.9234 42.1912 42.3685C40.3084 44.8409 39.5647 47.7231 39.1995 51.3497L42.1844 51.6503C42.5271 48.2467 43.1862 46.0136 44.5779 44.1859C45.9905 42.3309 48.2935 40.7144 52.3188 38.8627L51.0651 36.1373ZM41.4396 41.8004C45.5239 39.4519 48.2336 37.324 49.8662 34.4349C51.4915 31.5588 51.928 28.1381 51.9998 23.5234L49.0002 23.4766C48.9295 28.0142 48.4856 30.78 47.2543 32.959C46.0303 35.125 43.9072 36.921 39.9442 39.1996L41.4396 41.8004ZM49.7599 22.1953C46.1311 24.2539 43.4754 25.8544 41.7642 27.7975C39.9407 29.8683 39.27 32.2122 39.1924 35.4642L42.1915 35.5358C42.2589 32.7155 42.8117 31.1474 44.0157 29.7802C45.332 28.2853 47.5079 26.922 51.2401 24.8047L49.7599 22.1953ZM42.1919 78.5V73H39.1919V78.5H42.1919ZM42.1919 73V66H39.1919V73H42.1919ZM42.1919 66V56H39.1919V66H42.1919ZM42.1919 56V51.5H39.1919V56H42.1919ZM42.1919 51.5V40.5H39.1919V51.5H42.1919ZM42.1919 40.5V35.5H39.1919V40.5H42.1919ZM41.3985 71.6768C36.1111 68.8536 33.3463 66.4236 31.9206 63.7352C30.4972 61.0513 30.2711 57.857 30.6862 53.1313L27.6977 52.8687C27.2718 57.7176 27.4207 61.6533 29.2702 65.1408C31.1173 68.6238 34.5231 71.4065 39.9854 74.3232L41.3985 71.6768ZM28.6457 54.397C31.9904 55.7048 34.0879 56.9839 35.6126 58.7098C37.1443 60.4435 38.2208 62.7665 39.2483 66.4074L42.1355 65.5926C41.0608 61.7845 39.8316 58.9542 37.8609 56.7235C35.8833 54.485 33.282 52.9886 29.7382 51.603L28.6457 54.397ZM41.2778 54.6191C36.8759 52.7517 34.3268 50.9466 32.8126 48.5235C31.2859 46.0801 30.6578 42.7655 30.6919 37.5097L27.692 37.4903C27.6569 42.9021 28.2783 46.9282 30.2685 50.1132C32.2714 53.3185 35.5068 55.4296 40.1061 57.3809L41.2778 54.6191ZM28.5244 38.8433C32.7163 40.9265 35.1254 42.6632 36.6162 44.55C38.0772 46.3991 38.7704 48.5378 39.2059 51.7044L42.1779 51.2956C41.7093 47.8879 40.9062 45.1405 38.9702 42.6902C37.0639 40.2776 34.1752 38.3014 29.8595 36.1567L28.5244 38.8433ZM41.3496 39.1519C37.6606 37.3522 35.4402 35.73 34.0689 33.5383C32.6919 31.3375 32.0344 28.3426 32 23.4894L29 23.5106C29.0358 28.5563 29.7076 32.2237 31.5257 35.1295C33.3494 38.0443 36.1899 39.9727 40.0343 41.8481L41.3496 39.1519ZM29.9115 24.8797C33.6135 26.4587 35.7288 27.5852 37.0425 29.0345C38.2803 30.4001 38.9444 32.2216 39.1961 35.6111L42.1878 35.3889C41.9153 31.7178 41.156 29.1057 39.2652 27.0197C37.4503 25.0174 34.7317 23.6742 31.0885 22.1203L29.9115 24.8797ZM42.1919 35.5L42.1919 24.5L39.1919 24.5L39.1919 35.5L42.1919 35.5ZM41.0521 23.0439C37.359 22.1305 35.2811 20.6883 34.0428 18.5199C32.7437 16.245 32.2202 12.929 32.2637 7.92022L29.2638 7.89413C29.2195 12.9943 29.7204 17.0004 31.4376 20.0075C33.2156 23.121 36.1457 24.9208 40.3318 25.9561L41.0521 23.0439ZM32.2637 7.92022C32.279 6.1675 32.3626 4.23287 32.497 2.09409L29.503 1.90591C29.3665 4.07644 29.2797 6.0689 29.2638 7.89413L32.2637 7.92022ZM42.1919 24.5L42.1919 19.5L39.1919 19.5L39.1919 24.5L42.1919 24.5ZM42.1919 19.5L42.1919 8.5L39.1919 8.5L39.1919 19.5L42.1919 19.5ZM30.0746 9.23946C33.0659 10.7869 34.9622 12.0842 36.3036 13.625C37.6249 15.1429 38.5042 17.0098 39.239 19.8729L42.1448 19.1271C41.3434 16.0046 40.3029 13.65 38.5663 11.6553C36.8499 9.68354 34.5504 8.17721 31.453 6.57489L30.0746 9.23946ZM41.1891 25.9152C45.061 24.5549 47.8209 22.6569 49.5357 19.6261C51.2101 16.6666 51.7624 12.837 51.7396 7.90025L48.7397 7.9141C48.7618 12.7084 48.2036 15.8882 46.9246 18.1488C45.6859 20.3382 43.6495 21.871 40.1947 23.0848L41.1891 25.9152ZM51.7396 7.90025C51.7312 6.07968 51.6439 4.0851 51.4966 1.89916L48.5034 2.10084C48.648 4.24746 48.7317 6.17579 48.7397 7.9141L51.7396 7.90025ZM42.1797 19.691C42.4982 17.2102 43.049 15.5494 44.2257 14.0716C45.4414 12.545 47.4339 11.0752 50.9372 9.23514L49.5422 6.57921C45.9363 8.47318 43.4915 10.1777 41.8789 12.2029C40.2273 14.2769 39.5589 16.5455 39.2041 19.309L42.1797 19.691Z" fill="black"/>
</svg>
