<svg width="108" height="101" viewBox="0 0 108 101" fill="none" xmlns="http://www.w3.org/2000/svg">
<path d="M69.0208 27.1655L37.201 58.9853L42.8579 64.6421L48.5147 70.299L80.3345 38.4792L94.8302 12.6698L69.0208 27.1655Z" fill="#B8CBD9"/>
<path d="M24.8266 57.9246L32.9584 66.0564L41.4436 74.5416L49.5754 82.6734V71.3597L48.5147 70.299L42.8579 64.6421L37.201 58.9853L36.1403 57.9246H24.8266Z" fill="#AF4A47"/>
<path d="M41.4436 74.5416L32.9584 66.0564L29.0693 69.9454L37.5546 78.4307L41.4436 74.5416Z" fill="#C18E59"/>
<path d="M37.5546 78.4307L29.0693 69.9454L24.6499 74.3649L33.1351 82.8501L37.5546 78.4307Z" fill="#C18F59"/>
<path d="M20.2304 78.7843L28.7157 87.2696L33.1351 82.8501L24.6499 74.3649L20.2304 78.7843Z" fill="#C18F59"/>
<path d="M12.4523 81.6127L25.8873 95.0477L31.1906 89.7444L28.7157 87.2696L20.2304 78.7843L17.7556 76.3094L12.4523 81.6127Z" fill="#976947"/>
<path d="M20.2304 78.7843L17.7556 76.3094L12.4523 81.6127L25.8873 95.0477L31.1906 89.7444L28.7157 87.2696M20.2304 78.7843L28.7157 87.2696M20.2304 78.7843L24.6499 74.3649M32.9584 66.0564L24.8266 57.9246H36.1403L37.201 58.9853M32.9584 66.0564L41.4436 74.5416M32.9584 66.0564L29.0693 69.9454M41.4436 74.5416L49.5754 82.6734V71.3597L48.5147 70.299M41.4436 74.5416L37.5546 78.4307M28.7157 87.2696L33.1351 82.8501M37.201 58.9853L69.0208 27.1655L94.8302 12.6698L80.3345 38.4792L48.5147 70.299M37.201 58.9853L42.8579 64.6421M48.5147 70.299L42.8579 64.6421M42.8579 64.6421L74.6777 32.8223M29.0693 69.9454L37.5546 78.4307M29.0693 69.9454L24.6499 74.3649M37.5546 78.4307L33.1351 82.8501M24.6499 74.3649L33.1351 82.8501" stroke="black" stroke-width="3" stroke-linejoin="round"/>
<path d="M27.6655 38.4792L59.4853 70.299L65.1421 64.6421L70.799 58.9853L38.9792 27.1655L13.1698 12.6698L27.6655 38.4792Z" fill="#E8EFF4"/>
<path d="M58.4246 82.6734L66.5564 74.5416L75.0416 66.0564L83.1734 57.9246H71.8597L70.799 58.9853L65.1421 64.6421L59.4853 70.299L58.4246 71.3597V82.6734Z" fill="#E4725F"/>
<path d="M75.0416 66.0564L66.5564 74.5416L70.4454 78.4307L78.9307 69.9454L75.0416 66.0564Z" fill="#C18E59"/>
<path d="M78.9307 69.9454L70.4454 78.4307L74.8649 82.8501L83.3501 74.3649L78.9307 69.9454Z" fill="#C18F59"/>
<path d="M79.2843 87.2696L87.7696 78.7843L83.3501 74.3649L74.8649 82.8501L79.2843 87.2696Z" fill="#C18F59"/>
<path d="M82.1127 95.0477L95.5477 81.6127L90.2444 76.3094L87.7696 78.7843L79.2843 87.2696L76.8094 89.7444L82.1127 95.0477Z" fill="#976947"/>
<path d="M79.2843 87.2696L76.8094 89.7444L82.1127 95.0477L95.5477 81.6127L90.2444 76.3094L87.7696 78.7843M79.2843 87.2696L87.7696 78.7843M79.2843 87.2696L74.8649 82.8501M66.5564 74.5416L58.4246 82.6734V71.3597L59.4853 70.299M66.5564 74.5416L75.0416 66.0564M66.5564 74.5416L70.4454 78.4307M75.0416 66.0564L83.1734 57.9246H71.8597L70.799 58.9853M75.0416 66.0564L78.9307 69.9454M87.7696 78.7843L83.3501 74.3649M59.4853 70.299L27.6655 38.4792L13.1698 12.6698L38.9792 27.1655L70.799 58.9853M59.4853 70.299L65.1421 64.6421M70.799 58.9853L65.1421 64.6421M65.1421 64.6421L33.3223 32.8223M70.4454 78.4307L78.9307 69.9454M70.4454 78.4307L74.8649 82.8501M78.9307 69.9454L83.3501 74.3649M74.8649 82.8501L83.3501 74.3649" stroke="black" stroke-width="3" stroke-linejoin="round"/>
</svg>
