<svg width="82" height="84" viewBox="0 0 82 84" fill="none" xmlns="http://www.w3.org/2000/svg">
<path d="M29.5 67C29.5 48.5 53 48.5 53 67H73.5V48.5H67H54.5H41.5H28.5H16.5H9.5V67H29.5Z" fill="#FFEABB"/>
<path d="M53 82H63.25H73.5V67H53V82Z" fill="#FDD79B"/>
<path d="M9.5 82H19.5H29.5V67H9.5V82Z" fill="#FDD79B"/>
<path d="M29.5 67V82H53V67C53 48.5 29.5 48.5 29.5 67Z" fill="black"/>
<path d="M80 48.5C75.3366 26.8869 60.3055 8.89119 41.5 6C57.4805 15.7817 62.7711 25.4183 67 48.5H73.5H80Z" fill="#DC8758"/>
<path d="M41.5 6C49.1219 18.5262 54.1039 28.0588 54.5 48.5H67C62.7711 25.4183 57.4805 15.7817 41.5 6Z" fill="#DC8758"/>
<path d="M41.5 6V48.5H54.5C54.1039 28.0588 49.1219 18.5262 41.5 6Z" fill="#DC8758"/>
<path d="M28.5 48.5H41.5V6C33.5343 20.9065 29.391 30.3339 28.5 48.5Z" fill="#DC8758"/>
<path d="M41.5 6C26.2508 15.7034 20.4095 24.5472 16.5 48.5H28.5C29.391 30.3339 33.5343 20.9065 41.5 6Z" fill="#DC8758"/>
<path d="M41.5 6C23.5 9 7.5 27 2 48.5H9.5H16.5C20.4095 24.5472 26.2508 15.7034 41.5 6Z" fill="#DC8758"/>
<path d="M41.5 6C60.3055 8.89119 75.3366 26.8869 80 48.5H73.5M41.5 6C23.5 9 7.5 27 2 48.5H9.5M41.5 6C26.2508 15.7034 20.4095 24.5472 16.5 48.5M41.5 6C33.5343 20.9065 29.391 30.3339 28.5 48.5M41.5 6V48.5M41.5 6C49.1219 18.5262 54.1039 28.0588 54.5 48.5M41.5 6C57.4805 15.7817 62.7711 25.4183 67 48.5M41.5 6L49 1.5M41.5 6L35 1.5M41.5 48.5H28.5M41.5 48.5H54.5M73.5 48.5V67M73.5 48.5H67M9.5 48.5V67M9.5 48.5H16.5M29.5 82V67M29.5 82H53M29.5 82H19.5M29.5 67C29.5 48.5 53 48.5 53 67M29.5 67H9.5M29.5 67L19.5 82M53 67V82M53 67H73.5M53 67L63.25 82M53 82H63.25M73.5 67V82H63.25M73.5 67L63.25 82M9.5 67V82H19.5M9.5 67L19.5 82M16.5 48.5H28.5M54.5 48.5H67" stroke="black" stroke-width="3" stroke-linecap="round"/>
</svg>
