<svg width="52" height="78" viewBox="0 0 52 78" fill="none" xmlns="http://www.w3.org/2000/svg">
<path d="M6.46324 38.9427C6.36486 39.1053 6.22217 39.2366 6.05189 39.321L3.99292 40.342C11.2509 46.8196 11.5825 52.1982 7.60043 62.1969L14.5904 65.1675C14.7399 65.231 14.8718 65.3301 14.9744 65.4561L20.1302 71.7824C20.8265 70.4236 21.7168 69.2976 23.0362 68.3316C24.7056 67.1093 27.0621 66.1431 30.582 65.2854C30.6397 65.2714 30.6966 65.2523 30.7508 65.2281C35.0533 63.3027 38.5202 59.453 39.5572 54.5285C40.1869 51.5384 39.9206 48.152 38.4016 44.5596C36.1615 41.0311 34.8196 37.5918 34.4066 34.5907C28.292 29.8735 25.5883 26.6508 21.3906 20.4041C18.5647 23.69 16.6906 24.8367 12.885 25.772C9.05547 27.9265 8.47941 30.2853 8.63229 35.3575L6.46324 38.9427Z" fill="#4B4B4B"/>
<path d="M10.8149 69.7931C11.1413 69.8451 11.4292 70.0427 11.5889 70.332C13.305 73.4416 14.9832 74.5839 18.6843 75.6166C19.1223 74.1568 19.5616 72.892 20.1302 71.7824L14.9744 65.4561C14.8718 65.3301 14.7399 65.231 14.5904 65.1675L7.60043 62.1969C7.21149 63.1735 6.78141 64.1942 6.3126 65.2642C7.18466 68.2684 8.18387 69.3737 10.8149 69.7931Z" fill="#4B4B4B"/>
<path d="M27.7579 75.9915C27.8932 75.9971 28.029 75.975 28.1554 75.9265C31.0163 74.8289 32.7883 73.9332 36.4685 71.0155C30.1333 71.494 27.1405 70.9793 23.0362 68.3316C21.7168 69.2976 20.8265 70.4236 20.1302 71.7824C19.5616 72.892 19.1223 74.1568 18.6843 75.6166L27.7579 75.9915Z" fill="#7F7F7F"/>
<path d="M36.4685 71.0155C38.9761 70.4978 40.5279 69.996 43.488 68.4978C43.6986 68.3912 43.8643 68.212 43.955 67.9941C45.3253 64.7005 46.1716 62.4135 47.1078 59.513C45.2284 56.2414 43.6145 55.1019 39.5572 54.5285C38.5202 59.453 35.0533 63.3027 30.7508 65.2281C30.6966 65.2523 30.6397 65.2714 30.582 65.2854C27.0621 66.1431 24.7056 67.1093 23.0362 68.3316C27.1405 70.9793 30.1333 71.494 36.4685 71.0155Z" fill="#7F7F7F"/>
<path d="M47.3591 47.3919C47.3158 47.2936 47.2569 47.203 47.1847 47.1235L43.8142 43.4093L38.4016 44.5596C39.9206 48.152 40.1869 51.5384 39.5572 54.5285C43.6145 55.1019 45.2284 56.2414 47.1078 59.513C47.3995 58.6091 47.7 57.6456 48.0278 56.5736C48.0538 56.4887 48.0909 56.4075 48.1383 56.3324L49.7164 53.8283C49.8937 53.5469 49.9195 53.1958 49.7853 52.8915L47.3591 47.3919Z" fill="#7F7F7F"/>
<path d="M44.8879 38.7948C44.9434 38.5565 44.9095 38.3061 44.7928 38.091L42.2677 33.4404C40.0737 30.3524 38.4601 28.2833 36.6049 26.6032C34.6583 28.3716 33.9402 31.2017 34.4066 34.5907C34.8196 37.5918 36.1615 41.0311 38.4016 44.5596L43.8142 43.4093L44.8879 38.7948Z" fill="#7F7F7F"/>
<path d="M42.2677 33.4404L42.6543 24.6218C40.0033 24.6218 37.9921 25.3429 36.6049 26.6032C38.4601 28.2833 40.0737 30.3524 42.2677 33.4404Z" fill="#7F7F7F"/>
<path d="M25.9357 2.28997C25.7484 2.10422 25.4953 2 25.2315 2H21.2331C20.8555 2 20.5101 2.21266 20.3401 2.54981L19.4575 4.30052L22.1638 7.7513C21.385 9.55695 21.3504 10.7067 22.0318 12.7389C22.1138 12.9835 22.1029 13.25 22.006 13.4891C21.2305 15.4018 21.1805 17.1165 21.3906 20.4041C25.5883 26.6508 28.292 29.8735 34.4066 34.5907C33.9402 31.2017 34.6583 28.3716 36.6049 26.6032C37.9921 25.3429 40.0033 24.6218 42.6543 24.6218L36.6742 19.4324C36.5395 19.3155 36.4385 19.1647 36.3817 18.9957L34.6643 13.886L31.9945 5.94267C31.8908 5.63427 31.6436 5.39557 31.3317 5.30279L28.2037 4.37213C28.0457 4.32512 27.9017 4.23977 27.7847 4.12369L25.9357 2.28997Z" fill="#7F7F7F"/>
<path d="M14.8181 22.0602C14.8181 22.2314 14.7742 22.3996 14.6906 22.549L12.885 25.772C16.6906 24.8367 18.5647 23.69 21.3906 20.4041C21.1805 17.1165 21.2305 15.4018 22.006 13.4891C22.1029 13.25 22.1138 12.9835 22.0318 12.7389C21.3504 10.7067 21.385 9.55695 22.1638 7.7513L19.4575 4.30052L18.4047 6.38867C18.3343 6.5283 18.2976 6.68249 18.2976 6.83886V7.60336C18.2976 7.70145 18.2832 7.79901 18.2548 7.8929L15.978 15.4197L14.8609 19.1123C14.8325 19.2062 14.8181 19.3037 14.8181 19.4018V22.0602Z" fill="#D5BFAE"/>
<path d="M2.83308 55.2953C1.12372 59.0949 1.93178 61.2791 6.3126 65.2642C6.78141 64.1942 7.21149 63.1735 7.60043 62.1969C11.5825 52.1982 11.2509 46.8196 3.99292 40.342L2.87585 45.5119C2.84762 45.6425 2.84587 45.7775 2.8707 45.9089L3.94438 51.5878C3.97621 51.7562 3.96426 51.9298 3.90968 52.0922L2.83308 55.2953Z" fill="#D5BFAE"/>
<path d="M6.3126 65.2642C1.93178 61.2791 1.12372 59.0949 2.83308 55.2953L3.90968 52.0922C3.96426 51.9298 3.97621 51.7562 3.94438 51.5878L2.8707 45.9089C2.84587 45.7775 2.84762 45.6425 2.87585 45.5119L3.99292 40.342M6.3126 65.2642C7.18466 68.2684 8.18387 69.3737 10.8149 69.7931C11.1413 69.8451 11.4292 70.0427 11.5889 70.332C13.305 73.4416 14.9832 74.5839 18.6843 75.6166M6.3126 65.2642C6.78141 64.1942 7.21149 63.1735 7.60043 62.1969M3.99292 40.342L6.05189 39.321C6.22217 39.2366 6.36486 39.1053 6.46324 38.9427L8.63229 35.3575M3.99292 40.342C11.2509 46.8196 11.5825 52.1982 7.60043 62.1969M8.63229 35.3575C8.47941 30.2853 9.05547 27.9265 12.885 25.772M8.63229 35.3575L12.5342 36.4129C12.7608 36.4742 12.9587 36.6133 13.0931 36.8058L16.3646 41.4922M12.885 25.772L14.6906 22.549C14.7742 22.3996 14.8181 22.2314 14.8181 22.0602V19.4018C14.8181 19.3037 14.8325 19.2062 14.8609 19.1123L15.978 15.4197L18.2548 7.8929C18.2832 7.79901 18.2976 7.70145 18.2976 7.60336V6.83886C18.2976 6.68249 18.3343 6.5283 18.4047 6.38867L19.4575 4.30052M12.885 25.772C16.6906 24.8367 18.5647 23.69 21.3906 20.4041M42.6543 24.6218L36.6742 19.4324C36.5395 19.3155 36.4385 19.1647 36.3817 18.9957L34.6643 13.886M42.6543 24.6218L42.2677 33.4404M42.6543 24.6218C40.0033 24.6218 37.9921 25.3429 36.6049 26.6032M42.2677 33.4404L44.7928 38.091C44.9095 38.3061 44.9434 38.5565 44.8879 38.7948L43.8142 43.4093M42.2677 33.4404C40.0737 30.3524 38.4601 28.2833 36.6049 26.6032M43.8142 43.4093L47.1847 47.1235C47.2569 47.203 47.3158 47.2936 47.3591 47.3919L49.7853 52.8915C49.9195 53.1958 49.8937 53.5469 49.7164 53.8283L48.1383 56.3324C48.0909 56.4075 48.0538 56.4887 48.0278 56.5736C47.7 57.6456 47.3995 58.6091 47.1078 59.513M43.8142 43.4093L38.4016 44.5596M36.4685 71.0155C38.9761 70.4978 40.5279 69.996 43.488 68.4978C43.6986 68.3912 43.8643 68.212 43.955 67.9941C45.3253 64.7005 46.1716 62.4135 47.1078 59.513M36.4685 71.0155C32.7883 73.9332 31.0163 74.8289 28.1554 75.9265C28.029 75.975 27.8932 75.9971 27.7579 75.9915L18.6843 75.6166M36.4685 71.0155C30.1333 71.494 27.1405 70.9793 23.0362 68.3316M18.6843 75.6166C19.1223 74.1568 19.5616 72.892 20.1302 71.7824M7.60043 62.1969L14.5904 65.1675C14.7399 65.231 14.8718 65.3301 14.9744 65.4561L20.1302 71.7824M38.4016 44.5596C39.9206 48.152 40.1869 51.5384 39.5572 54.5285M38.4016 44.5596C36.1615 41.0311 34.8196 37.5918 34.4066 34.5907M39.5572 54.5285C38.5202 59.453 35.0533 63.3027 30.7508 65.2281C30.6966 65.2523 30.6397 65.2714 30.582 65.2854C27.0621 66.1431 24.7056 67.1093 23.0362 68.3316M39.5572 54.5285C43.6145 55.1019 45.2284 56.2414 47.1078 59.513M39.5572 54.5285C35.8742 46.5744 32.9956 43.6435 26.4165 41.1088M23.0362 68.3316C21.7168 69.2976 20.8265 70.4236 20.1302 71.7824M34.4066 34.5907C28.292 29.8735 25.5883 26.6508 21.3906 20.4041M34.4066 34.5907C33.9402 31.2017 34.6583 28.3716 36.6049 26.6032M21.3906 20.4041C21.1805 17.1165 21.2305 15.4018 22.006 13.4891C22.1029 13.25 22.1138 12.9835 22.0318 12.7389C21.3504 10.7067 21.385 9.55695 22.1638 7.7513M22.1638 7.7513C21.1069 6.40368 20.5144 5.64813 19.4575 4.30052M22.1638 7.7513L19.4575 4.30052M19.4575 4.30052L20.3401 2.54981C20.5101 2.21266 20.8555 2 21.2331 2H25.2315C25.4953 2 25.7484 2.10422 25.9357 2.28997L27.7847 4.12369C27.9017 4.23977 28.0457 4.32512 28.2037 4.37213L31.3317 5.30279C31.6436 5.39557 31.8908 5.63427 31.9945 5.94267L34.6643 13.886M19.0709 60.2798C25.8171 59.2518 28.7315 57.7079 31.8291 52.6114M26.4165 12.3523L34.6643 13.886M31.4425 23.0881C33.5687 24.2222 35.1601 25.2947 36.6049 26.6032" stroke="black" stroke-width="3" stroke-linecap="round" stroke-linejoin="round"/>
</svg>
